<svg width="16" height="16" viewBox="0 0 16 16" fill="none" xmlns="http://www.w3.org/2000/svg">
<g clip-path="url(#clip0_12_847)">
<path d="M0.96169 6.87698C1.02716 6.86635 1.09341 6.86145 1.1597 6.86231L12.4474 6.86231L12.2013 6.74783C11.9607 6.63396 11.7418 6.47898 11.5544 6.28991L8.3891 3.12456C7.97221 2.72661 7.90217 2.08642 8.2231 1.60772C8.59663 1.0976 9.31294 0.986846 9.82309 1.36037C9.8643 1.39056 9.90348 1.42348 9.94029 1.45889L15.6642 7.18285C16.1116 7.62968 16.112 8.35451 15.6651 8.80184C15.6649 8.80212 15.6645 8.80244 15.6642 8.80273L9.94029 14.5267C9.4926 14.9731 8.76777 14.9721 8.3213 14.5244C8.28617 14.4892 8.25337 14.4517 8.2231 14.4122C7.90217 13.9335 7.97221 13.2933 8.3891 12.8954L11.5487 9.72429C11.7167 9.55615 11.9098 9.41516 12.1211 9.30644L12.4646 9.15189L1.2227 9.15189C0.637893 9.17361 0.124812 8.7651 0.0149476 8.19027C-0.0862593 7.56618 0.3376 6.97822 0.96169 6.87698Z" fill="#2194FF"/>
</g>
<defs>
<clipPath id="clip0_12_847">
<rect width="16" height="16" fill="white" transform="matrix(-1 8.74228e-08 8.74228e-08 1 16 0)"/>
</clipPath>
</defs>
</svg>
