<svg width="22" height="23" fill="none" xmlns="http://www.w3.org/2000/svg"><g opacity=".4" clip-path="url(#clip0_6_287)" fill="#F1F1F1"><path d="M7.938 4.144a.645.645 0 00.645-.645V2.201a.645.645 0 00-1.29 0V3.5c0 .356.29.645.645.645zM2.09 6.505l-1.123-.65a.644.644 0 10-.645 1.117l1.124.649a.644.644 0 10.645-1.116zm-.644 7.126l-1.124.65c-.569.328-.335 1.202.323 1.202.292 0 .366-.141 1.446-.735a.644.644 0 00-.645-1.117zM14.43 7.62l1.124-.648a.644.644 0 10-.645-1.116l-1.124.649a.644.644 0 10.645 1.116zm-7.795 4.639a6.122 6.122 0 015.226-4.976 5.145 5.145 0 00-3.923-1.815 5.163 5.163 0 00-5.156 5.159 5.14 5.14 0 001.389 3.517 4.933 4.933 0 012.464-1.885z"/><path d="M17.14 11.542a4.846 4.846 0 00-4.48-3.022 4.835 4.835 0 00-4.834 4.787c-1.83.2-3.223 1.771-3.223 3.613a3.639 3.639 0 003.634 3.636c10.141-.01 9.586.026 9.763-.03a4.514 4.514 0 00-.858-8.985z"/></g><defs><clipPath id="clip0_6_287"><path fill="#fff" transform="translate(0 .054)" d="M0 0h22v22.008H0z"/></clipPath></defs></svg>