<svg width="107" height="114" fill="none" xmlns="http://www.w3.org/2000/svg"><g clip-path="url(#clip0_30_2)" fill="#F1F1F1"><path d="M82.167 87.294l-1.768-1.285c.993-1.328 1.976-2.674 2.887-4.103l1.803 1.215c-.844 1.417-1.92 2.816-2.922 4.173zm5.715-8.397l-1.895-1.115c.888-1.515 1.653-2.938 2.303-4.344l1.972.897a49.53 49.53 0 01-2.38 4.562zm4.215-9.386l-2.095-.63c.16-.512.298-1.06.428-1.58.245-1.029.422-2.072.53-3.123l2.17.19a26.904 26.904 0 01-.563 3.416c-.053.525-.294 1.156-.47 1.727zm.973-10.462l-2.18.235a20.794 20.794 0 00-1.026-4.651l2.078-.724c.585 1.696.981 3.45 1.181 5.234l-.053-.094zm-5.298-8.617a14.026 14.026 0 00-3.223-3.341l1.292-1.769a16.203 16.203 0 013.713 3.859l-1.782 1.25zm-7.358-5.475a18.703 18.703 0 00-4.647-.88l.149-2.165c1.768.086 3.515.411 5.194.968l-.696 2.077zm-9.487-.733c-1.446.17-3.043.425-4.848.796l-.493-2.2a46.417 46.417 0 015.08-.827l.261 2.231zM61.2 46.157l-1.485.365-3.411.83-.531-2.18 3.382-.838 1.504-.376.541 2.199zm-9.889 2.22a65.08 65.08 0 01-5.099.615l-.152-2.17a70.18 70.18 0 004.906-.605l.345 2.16zm-10.218.795a57.96 57.96 0 01-5.08-.19l.168-2.176c1.635.121 3.285.183 4.924.178l-.012 2.188zm-10.185-.736a80.691 80.691 0 01-5.02-.967l.5-2.115c1.598.365 3.23.66 4.843.917l-.323 2.165zm-9.94-2.287a78.878 78.878 0 01-4.812-1.703l.795-2.033c1.531.6 3.127 1.139 4.654 1.643l-.637 2.093zm-9.563-3.738a68.692 68.692 0 01-4.478-2.436l1.112-1.865a70.913 70.913 0 004.348 2.335l-.982 1.966zm-8.77-5.2c-.793-.57-1.586-1.14-2.352-1.75l1.343-1.722c.755.59 1.508 1.133 2.272 1.695L2.635 37.21z"/><path d="M92.726 85.911l-.443-2.155-10.549 2.195-1.383-10.672-2.177.284 1.687 12.98 12.865-2.632z"/></g><defs><clipPath id="clip0_30_2"><path fill="#fff" transform="rotate(-29.374 66.436 17.413)" d="M0 0h71v90H0z"/></clipPath></defs></svg>