<svg width="20" height="21" fill="none" xmlns="http://www.w3.org/2000/svg"><g opacity=".4" clip-path="url(#clip0_6_229)"><path d="M19.513 11.45a.703.703 0 00-.588.127 7.503 7.503 0 01-2.276 1.33 7.126 7.126 0 01-2.583.46 7.519 7.519 0 01-5.32-2.2 7.524 7.524 0 01-2.199-5.32c0-.87.154-1.715.41-2.482a6.87 6.87 0 011.227-2.2.653.653 0 00-.102-.921.703.703 0 00-.589-.128C5.32.704 3.427 2.009 2.072 3.748A10.094 10.094 0 000 9.888c0 2.79 1.125 5.322 2.967 7.164a10.043 10.043 0 007.16 2.968c2.353 0 4.527-.819 6.266-2.175a10.087 10.087 0 003.58-5.603.62.62 0 00-.46-.793z" fill="#F1F1F1"/></g><defs><clipPath id="clip0_6_229"><path fill="#fff" transform="translate(0 .054)" d="M0 0h20v20.007H0z"/></clipPath></defs></svg>