<svg width="22" height="22" fill="none" xmlns="http://www.w3.org/2000/svg"><path d="M12 9.712a.367.367 0 00-.315-.179h-1.37a.367.367 0 00-.314.178l-.66 1.1a.367.367 0 000 .377l.66 1.1a.368.368 0 00.314.179h1.37a.366.366 0 00.314-.178l.66-1.1a.366.366 0 000-.377l-.66-1.1z" fill="#2194FF"/><path d="M19.904 15.294l-1.467-.846 1.18-.434a.763.763 0 00.497-.884.735.735 0 00-.963-.507l-2.366.87-1.858-1.072.62-1.048a.733.733 0 000-.746l-.62-1.047 1.858-1.073 2.366.87a.733.733 0 00.976-.565.758.758 0 00-.504-.824l-1.185-.435 1.467-.847a.76.76 0 00.338-.953.734.734 0 00-1.037-.337l-1.503.868.214-1.237a.764.764 0 00-.47-.859.733.733 0 00-.968.567l-.43 2.483-1.87 1.08-.584-.99a.733.733 0 00-.63-.361h-1.232V4.744l1.907-1.589a.761.761 0 00.195-.957.733.733 0 00-1.104-.195l-.998.831V1.14a.76.76 0 00-.61-.762.733.733 0 00-.856.723v1.734l-.968-.806a.76.76 0 00-.976-.019.733.733 0 00.008 1.121l1.936 1.614v2.223H9.035a.733.733 0 00-.631.36l-.585.99-1.87-1.08-.422-2.442a.763.763 0 00-.78-.648.733.733 0 00-.673.857l.22 1.278-1.466-.847a.76.76 0 00-.966.146.733.733 0 00.198 1.104l1.504.867-1.186.436a.759.759 0 00-.505.824.733.733 0 00.977.565l2.365-.87L7.073 9.58l-.62 1.047a.733.733 0 000 .746l.62 1.048-1.858 1.072-2.365-.87a.735.735 0 00-.964.507.763.763 0 00.497.884l1.179.433-1.464.843a.764.764 0 00-.336.968.734.734 0 001.03.325l1.504-.868-.214 1.242a.75.75 0 00.715.9.734.734 0 00.722-.609l.43-2.484 1.87-1.08.584.99a.733.733 0 00.632.36h1.232v2.222l-1.907 1.59a.76.76 0 00-.194.957.733.733 0 001.104.195l.997-.832v1.695a.76.76 0 00.61.762.732.732 0 00.856-.723v-1.734l.998.83a.735.735 0 001.117-.217.756.756 0 00-.204-.93l-1.91-1.593v-2.223h1.231a.733.733 0 00.631-.36l.585-.99 1.87 1.08.43 2.484a.733.733 0 00.721.608.755.755 0 00.716-.905l-.213-1.232 1.503.867a.734.734 0 001.031-.325.763.763 0 00-.335-.966zm-6.616-3.728l-.66 1.1a1.105 1.105 0 01-.943.534h-1.37a1.104 1.104 0 01-.943-.534l-.66-1.1a1.096 1.096 0 010-1.132l.66-1.1a1.105 1.105 0 01.943-.534h1.37a1.105 1.105 0 01.943.534l.66 1.1a1.095 1.095 0 010 1.132z" fill="#2194FF"/></svg>