<svg width="25" height="25" fill="none" xmlns="http://www.w3.org/2000/svg"><g clip-path="url(#clip0_6_190)" fill="#2194FF"><path d="M12.5 6.238a6.27 6.27 0 00-6.262 6.263 6.27 6.27 0 006.262 6.262 6.27 6.27 0 006.262-6.262A6.27 6.27 0 0012.5 6.238zm0-1.84a1.222 1.222 0 01-1.222-1.222V1.222a1.222 1.222 0 112.444 0v1.954c0 .675-.548 1.222-1.222 1.222zm0 16.204c-.675 0-1.222.547-1.222 1.221v1.955a1.222 1.222 0 102.444 0v-1.954c0-.675-.548-1.222-1.222-1.222zM18.229 6.77a1.223 1.223 0 010-1.727l1.382-1.382a1.223 1.223 0 011.728 1.728L19.956 6.77a1.222 1.222 0 01-1.727 0zM6.77 18.23a1.22 1.22 0 00-1.727 0l-1.382 1.38a1.222 1.222 0 001.728 1.728l1.382-1.383a1.22 1.22 0 000-1.726zm13.832-5.73c0-.675.547-1.222 1.221-1.222h1.955a1.222 1.222 0 110 2.443h-1.954a1.221 1.221 0 01-1.222-1.221zm-16.204 0c0-.675-.547-1.222-1.222-1.222H1.222a1.222 1.222 0 100 2.443h1.954c.675 0 1.222-.546 1.222-1.221zm13.831 5.73a1.223 1.223 0 011.727 0l1.383 1.382a1.22 1.22 0 11-1.728 1.727l-1.383-1.382a1.22 1.22 0 010-1.727zM6.77 6.77a1.222 1.222 0 000-1.727L5.39 3.661A1.222 1.222 0 003.66 5.39l1.383 1.38a1.22 1.22 0 001.728 0z"/></g><defs><clipPath id="clip0_6_190"><path fill="#fff" d="M0 0h25v25H0z"/></clipPath></defs></svg>